<?xml version="1.0" standalone="no"?>
<!DOCTYPE svg PUBLIC "-//W3C//DTD SVG 20010904//EN"
 "http://www.w3.org/TR/2001/REC-SVG-20010904/DTD/svg10.dtd">
<svg version="1.0" xmlns="http://www.w3.org/2000/svg"
 width="512.000000pt" height="512.000000pt" viewBox="0 0 512.000000 512.000000"
 preserveAspectRatio="xMidYMid meet">
<metadata>
Created by potrace 1.16, written by Peter Selinger 2001-2019
</metadata>
<g transform="translate(0.000000,512.000000) scale(0.100000,-0.100000)"
fill="#078526" stroke="none">
<path d="M2240 5105 c-930 -115 -1721 -731 -2070 -1611 -73 -182 -138 -450
-160 -656 -13 -125 -13 -431 0 -556 100 -944 722 -1757 1616 -2112 182 -73
450 -138 656 -160 125 -13 431 -13 556 0 1016 108 1879 823 2176 1804 74 243
106 468 106 746 0 209 -10 324 -46 505 -168 852 -761 1560 -1580 1885 -182 73
-450 138 -656 160 -131 14 -469 11 -598 -5z m696 -424 c448 -85 828 -284 1145
-601 316 -316 515 -695 602 -1149 19 -101 22 -149 22 -371 0 -222 -3 -270 -22
-371 -87 -454 -285 -832 -603 -1150 -316 -316 -695 -515 -1149 -602 -101 -19
-149 -22 -371 -22 -222 0 -270 3 -371 22 -454 87 -832 285 -1150 603 -316 316
-515 695 -602 1149 -19 101 -22 149 -22 371 0 222 3 270 22 371 87 454 285
832 603 1150 316 316 712 523 1144 599 163 28 161 28 411 25 184 -2 252 -7
341 -24z"/>
<path d="M3510 3430 c-19 -3 -46 -12 -60 -19 -14 -7 -300 -287 -635 -622
l-610 -609 -255 256 c-163 163 -269 263 -295 275 -43 20 -119 25 -159 9 -40
-15 -104 -79 -116 -116 -17 -50 -14 -127 6 -166 23 -46 680 -705 728 -730 48
-25 127 -26 181 -4 56 24 1417 1384 1440 1440 65 156 -62 316 -225 286z"/>
</g>
</svg>
