<?xml version="1.0" standalone="no"?>
<!DOCTYPE svg PUBLIC "-//W3C//DTD SVG 20010904//EN"
 "http://www.w3.org/TR/2001/REC-SVG-20010904/DTD/svg10.dtd">
<svg version="1.0" xmlns="http://www.w3.org/2000/svg"
 width="40.000000pt" height="35.000000pt" viewBox="0 0 500.000000 500.000000"
 preserveAspectRatio="xMidYMid meet">
<metadata>
Created by potrace 1.16, written by Peter Selinger 2001-2019
</metadata>
<g transform="translate(0.000000,500.000000) scale(0.100000,-0.100000)"
fill="#ff9f00" stroke="none">
<path d="M927 3952 c-15 -15 -27 -32 -27 -36 0 -4 12 6 26 23 29 35 42 38 70
16 18 -14 17 -14 -8 -4 -32 14 -50 3 -74 -43 -9 -17 -20 -26 -26 -22 -6 4 -8
3 -5 -4 9 -14 -3 -43 -14 -36 -5 3 -6 -2 -3 -10 4 -9 -1 -18 -10 -22 -9 -3
-14 -9 -12 -13 8 -13 -14 -52 -25 -45 -8 4 -9 3 -5 -4 6 -11 -28 -92 -39 -92
-3 0 4 19 16 43 49 97 -7 6 -146 -238 -81 -143 -150 -263 -152 -267 -2 -5 -2
-8 1 -8 2 0 28 41 56 90 28 50 54 90 57 90 3 0 -10 -26 -28 -57 -17 -32 -48
-86 -66 -121 -19 -34 -39 -60 -44 -56 -5 3 -6 -3 -2 -12 4 -12 3 -15 -5 -10
-8 5 -10 1 -5 -10 5 -13 3 -15 -7 -9 -9 5 -11 4 -6 -3 9 -15 -12 -54 -24 -47
-6 4 -7 -1 -3 -11 5 -13 3 -15 -7 -9 -10 6 -12 4 -7 -9 4 -9 3 -15 -2 -12 -11
7 -221 -357 -221 -381 1 -19 30 -64 30 -46 0 7 -5 15 -10 18 -6 3 -10 14 -10
23 0 17 152 296 172 317 14 14 -8 -29 -91 -175 -39 -68 -71 -132 -71 -141 0
-9 9 -24 20 -34 11 -10 17 -22 14 -26 -3 -5 1 -6 9 -3 8 3 18 0 23 -7 5 -8 3
-10 -6 -4 -9 5 -11 4 -6 -4 4 -6 13 -11 19 -10 26 3 38 -2 31 -13 -4 -7 -3 -8
4 -4 11 6 72 -19 72 -30 0 -2 -10 1 -23 7 -36 19 -15 2 51 -41 67 -43 77 -47
66 -27 -4 7 -3 9 2 4 5 -5 9 -13 9 -19 0 -16 70 -49 89 -42 9 3 16 10 16 16 0
5 -6 6 -12 2 -7 -5 -2 6 12 23 14 16 31 39 38 49 10 16 11 15 1 -6 -6 -14 -18
-33 -27 -42 -8 -10 -11 -18 -5 -18 8 0 76 107 112 178 24 45 2 20 -29 -33 -17
-30 -34 -55 -37 -55 -3 0 10 26 28 58 17 31 48 85 66 120 19 34 39 60 44 56 5
-3 6 3 2 12 -4 12 -3 15 5 10 8 -5 10 -1 5 10 -4 12 -3 15 5 10 8 -5 10 -1 5
10 -4 12 -3 15 5 10 8 -5 10 -2 6 8 -4 11 0 16 12 16 16 0 17 2 4 10 -14 9 -7
14 13 11 5 -1 6 3 2 8 -6 10 30 91 40 91 3 0 -2 -15 -11 -32 -44 -89 17 12
143 232 156 273 165 290 160 290 -3 0 -46 -72 -97 -160 -50 -88 -94 -160 -96
-160 -6 0 -8 -4 106 195 50 88 96 159 101 157 6 -1 8 2 4 7 -8 14 33 93 45 86
6 -4 7 1 3 11 -5 13 -3 15 7 9 10 -6 12 -4 7 9 -4 10 -3 15 3 11 12 -8 43 52
34 67 -4 7 -3 8 4 4 13 -8 42 43 42 73 0 11 -10 30 -22 41 -30 28 -338 220
-353 220 -6 0 -23 -13 -38 -28z"/>
<path d="M3860 3878 c-143 -89 -166 -107 -174 -136 -6 -22 -5 -41 3 -60 11
-26 11 -26 -5 -7 -10 13 -14 31 -10 53 3 19 1 30 -5 27 -5 -4 -9 -17 -9 -31 0
-34 28 -86 42 -78 7 4 8 3 4 -4 -9 -15 22 -75 34 -67 6 4 7 -1 3 -11 -5 -13
-3 -15 7 -9 10 6 12 4 7 -9 -4 -10 -3 -15 3 -11 12 7 53 -72 45 -86 -4 -5 -2
-8 4 -7 8 2 228 -370 288 -487 43 -83 -17 13 -126 205 -68 118 -128 220 -133
225 -14 13 -25 33 147 -267 80 -142 149 -258 151 -258 2 0 -2 14 -11 30 -9 17
-13 30 -10 30 10 0 46 -81 40 -91 -4 -5 -3 -9 2 -8 20 3 27 -2 13 -11 -13 -8
-13 -10 1 -10 19 0 33 -26 22 -42 -4 -7 -1 -8 7 -3 10 6 12 4 7 -9 -5 -11 -3
-15 5 -10 8 5 9 2 5 -10 -4 -10 -3 -15 3 -11 5 3 18 -11 29 -32 10 -21 51 -93
89 -161 39 -67 66 -120 61 -117 -4 3 -43 66 -85 140 -42 74 -78 135 -81 135
-5 0 4 -18 84 -160 72 -127 105 -164 137 -154 32 10 66 35 61 44 -3 5 0 12 6
16 8 4 9 3 5 -4 -12 -19 0 -14 66 28 66 43 87 60 51 41 -13 -6 -23 -9 -23 -7
0 11 61 36 72 30 7 -4 8 -3 4 4 -7 11 5 16 31 13 6 -1 15 4 19 10 5 8 3 9 -6
4 -9 -6 -11 -4 -6 4 5 7 15 10 23 7 8 -3 12 -2 9 3 -3 4 3 16 14 26 28 25 26
38 -21 124 -22 42 -33 67 -25 57 8 -10 30 -47 48 -82 28 -55 31 -67 21 -84
-18 -27 -16 -38 2 -14 8 10 15 27 15 37 0 28 -200 368 -212 360 -7 -3 -8 -1
-4 5 7 12 -6 44 -17 43 -19 -3 -21 0 -7 9 13 8 13 10 -1 10 -18 0 -42 46 -33
62 5 7 2 8 -6 3 -10 -6 -12 -4 -7 9 4 9 3 15 -2 12 -5 -4 -25 22 -44 56 -18
35 -49 89 -66 121 -18 31 -31 57 -28 57 3 0 29 -40 57 -90 28 -49 54 -90 56
-90 3 0 3 3 1 8 -123 219 -310 542 -314 542 -2 0 14 -34 37 -75 23 -41 39 -75
36 -75 -11 0 -87 151 -80 161 4 8 3 9 -5 5 -11 -7 -33 32 -25 45 2 4 -3 10
-12 13 -9 4 -14 13 -10 22 3 8 2 13 -3 10 -11 -7 -23 22 -14 36 3 7 1 8 -5 4
-11 -6 -16 6 -13 27 0 4 -4 6 -10 5 -6 -2 -14 3 -17 11 -3 9 0 11 9 6 8 -5 3
4 -10 18 -14 15 -29 27 -36 27 -6 0 -85 -46 -175 -102z"/>
<path d="M2540 3620 c-259 -17 -462 -58 -522 -103 -37 -29 -69 -71 -39 -53 17
11 13 0 -6 -15 -11 -10 -14 -10 -9 -1 4 6 5 12 2 12 -5 0 -108 -139 -165 -222
-63 -93 -22 -46 63 72 48 66 89 120 93 120 3 0 1 -6 -5 -12 -5 -7 -47 -65 -92
-128 -45 -63 -85 -115 -90 -115 -5 0 -12 -4 -17 -9 -5 -5 -2 -6 6 -1 9 5 12 3
9 -6 -3 -8 -10 -14 -15 -14 -6 0 -15 -4 -20 -9 -5 -5 -2 -6 6 -1 9 5 12 3 9
-6 -3 -8 -10 -13 -16 -12 -5 1 -9 -5 -8 -15 0 -9 -5 -16 -12 -14 -8 1 -11 -2
-7 -8 8 -14 -14 -52 -26 -44 -6 3 -9 0 -7 -7 1 -8 -1 -14 -5 -14 -21 0 -66
-93 -72 -150 -5 -43 -3 -56 4 -45 9 13 11 13 11 -2 0 -13 9 -18 33 -19 l32 -1
-30 -7 c-57 -14 82 -26 145 -13 59 13 172 66 193 90 10 13 9 14 -2 7 -9 -5
-12 -4 -7 3 4 6 12 9 19 6 7 -2 24 8 37 23 l25 28 -30 -25 c-16 -13 -5 1 25
33 56 58 83 79 39 30 l-24 -28 28 25 c15 13 25 30 23 36 -3 7 3 18 12 26 16
12 16 11 3 -7 -8 -11 6 0 32 25 45 43 58 58 37 45 -16 -10 -11 1 7 16 11 10
14 10 9 2 -10 -18 -3 -16 36 6 60 35 159 63 197 56 33 -6 142 -60 309 -152 34
-19 62 -32 62 -30 0 6 -192 113 -289 161 -29 15 -72 31 -95 36 -36 7 -37 8
-11 9 17 1 64 -15 105 -35 121 -58 360 -196 354 -205 -3 -5 1 -6 8 -4 8 3 22
-2 33 -11 11 -8 14 -13 8 -9 -22 11 -14 -4 8 -16 16 -8 20 -8 14 1 -4 7 6 5
24 -4 17 -9 31 -19 31 -22 0 -2 -10 1 -22 7 -37 19 -16 2 50 -41 67 -43 77
-47 66 -27 -4 7 -3 9 2 4 5 -5 9 -14 9 -20 0 -5 6 -12 14 -15 9 -3 11 0 6 9
-5 8 -4 11 1 6 5 -5 9 -14 9 -20 0 -5 6 -12 14 -15 9 -3 11 0 6 9 -5 8 -4 11
1 6 5 -5 9 -14 9 -20 0 -5 6 -12 14 -15 9 -3 11 0 6 9 -5 8 -4 11 1 6 5 -5 9
-14 9 -20 0 -5 6 -12 14 -15 9 -3 11 0 6 9 -5 8 -4 11 1 6 5 -5 9 -14 9 -20 0
-5 6 -12 14 -15 9 -3 11 0 6 9 -5 8 -4 11 1 6 5 -5 9 -12 9 -17 0 -5 20 -23
45 -41 25 -17 66 -47 93 -66 26 -19 47 -32 47 -30 0 3 -38 33 -85 67 -47 34
-85 64 -85 67 0 4 66 -41 162 -111 15 -10 25 -23 22 -27 -2 -4 1 -11 7 -15 8
-4 9 -3 5 4 -4 7 -3 12 3 12 10 0 26 -19 26 -32 0 -3 4 -10 9 -15 5 -5 6 -3 2
5 -12 20 7 14 39 -14 l30 -25 -30 17 -30 17 30 -26 c32 -28 51 -35 39 -14 -5
8 -2 8 9 -2 20 -16 23 -26 5 -15 -9 5 -9 2 1 -9 16 -20 36 -23 25 -4 -5 8 -2
8 9 -2 20 -16 23 -25 5 -15 -7 4 -4 -2 6 -14 23 -26 44 -30 25 -4 -11 14 -10
13 9 -2 24 -21 29 -31 10 -20 -22 12 13 -20 105 -95 109 -90 133 -104 161 -89
18 9 166 131 280 230 l40 35 -38 66 c-22 41 -42 65 -48 61 -6 -4 -8 -3 -5 4 9
13 -2 43 -14 37 -11 -8 -51 73 -43 87 4 6 3 8 -4 5 -6 -4 -28 25 -52 70 -24
43 -54 97 -67 121 -14 23 -23 42 -20 42 3 0 20 -25 37 -55 17 -30 34 -55 36
-55 6 0 20 -24 -141 257 -76 133 -142 240 -146 237 -12 -7 -31 34 -23 48 5 7
3 8 -6 3 -10 -6 -12 -4 -7 9 5 11 3 15 -5 10 -8 -5 -9 -2 -5 10 4 10 3 15 -3
11 -5 -3 -18 13 -27 35 -16 36 -21 41 -43 36 -14 -3 -36 -8 -50 -11 -14 -3 -3
3 23 13 27 9 45 20 42 24 -3 3 -29 -3 -58 -14 -89 -35 -209 -29 -412 20 -245
59 -438 77 -665 62z"/>
<path d="M1320 3533 c8 -3 22 -12 31 -19 8 -8 40 -27 70 -44 30 -16 50 -30 44
-30 -14 0 -112 57 -120 70 -12 20 -33 9 -49 -25 -10 -21 -22 -33 -28 -29 -7 4
-8 2 -4 -5 7 -11 -158 -321 -171 -321 -3 0 10 26 28 58 59 105 103 187 95 181
-7 -6 -242 -413 -272 -471 -8 -16 -12 -28 -10 -28 2 0 37 56 76 125 39 69 74
125 76 125 3 0 3 -3 1 -7 -2 -5 -40 -71 -84 -148 -44 -77 -90 -159 -102 -183
-13 -26 -26 -40 -33 -36 -7 4 -8 3 -4 -4 10 -16 -32 -94 -46 -86 -8 5 -9 1 -5
-10 4 -9 3 -15 -2 -12 -8 5 -101 -146 -101 -164 0 -4 8 -14 18 -21 15 -13 16
-12 3 4 -8 9 -12 19 -10 21 2 2 13 -8 23 -22 11 -14 14 -22 8 -18 -23 14 -12
-11 15 -35 20 -18 24 -19 13 -4 -15 20 -14 20 8 1 23 -20 30 -32 12 -21 -19
12 -10 -12 12 -31 22 -19 23 -19 8 1 -15 20 -14 20 8 1 23 -20 30 -32 12 -21
-19 12 -10 -12 12 -31 22 -19 23 -19 8 1 -15 20 -14 20 8 1 23 -20 31 -42 10
-30 -8 4 -10 3 -5 -2 5 -5 14 -9 20 -9 7 0 12 -5 12 -12 0 -26 16 -24 60 8 78
56 192 53 282 -8 31 -21 35 -22 19 -5 -10 12 -37 30 -60 41 -22 12 -34 21 -26
21 18 0 53 -22 93 -58 27 -26 38 -50 15 -36 -7 4 -8 3 -4 -5 4 -6 11 -9 16 -6
5 3 14 -3 19 -14 14 -26 14 -34 -1 -25 -7 4 -8 3 -4 -5 4 -6 12 -9 17 -6 5 4
9 1 9 -4 0 -6 7 -11 15 -11 8 0 15 5 15 10 0 19 83 101 122 121 48 25 104 24
174 -2 102 -38 153 -112 170 -246 5 -39 11 -53 23 -54 12 0 11 -2 -4 -9 -18
-7 -17 -8 10 -15 33 -7 70 -19 99 -31 15 -6 17 -4 11 7 -5 8 -5 11 1 6 5 -5 9
-14 9 -20 0 -5 6 -12 14 -15 9 -3 11 0 6 9 -5 8 4 3 19 -11 15 -14 32 -34 38
-45 6 -11 -4 -4 -22 15 l-32 35 29 -42 c15 -22 31 -39 35 -37 14 9 29 -66 23
-110 -7 -43 -6 -45 20 -52 18 -4 23 -9 15 -14 -8 -5 4 -12 31 -18 24 -6 55
-13 69 -17 20 -5 22 -5 10 5 -13 10 -13 11 0 7 8 -2 15 -9 15 -14 0 -6 12 -21
27 -32 15 -12 39 -47 55 -79 46 -94 36 -177 -33 -269 -25 -33 -29 -44 -16 -42
4 1 16 1 27 0 16 -1 17 -3 6 -10 -12 -8 -8 -11 15 -16 16 -4 63 -15 104 -25
41 -10 125 -28 185 -40 124 -24 174 -21 246 15 44 23 149 126 149 147 0 6 -8
2 -17 -9 -10 -10 -14 -13 -8 -5 6 10 4 18 -8 27 -9 6 -13 16 -9 20 4 5 1 5 -5
1 -7 -4 -21 -2 -30 4 -16 10 -16 11 2 5 41 -13 2 8 -193 104 -132 66 -202 106
-205 118 -4 17 -5 17 -6 -1 0 -10 7 -25 17 -33 15 -13 15 -13 -5 -3 -27 13
-30 42 -6 61 11 10 14 10 9 2 -5 -9 -1 -13 13 -13 11 0 111 -45 222 -100 111
-55 207 -100 213 -100 6 1 -58 34 -141 75 -84 40 -153 76 -153 79 0 2 64 -26
143 -64 177 -85 223 -100 295 -99 77 0 122 18 148 56 12 18 24 30 27 27 3 -3
3 4 0 17 -4 15 -2 20 5 15 11 -6 7 51 -5 84 -4 8 -7 19 -7 25 -1 10 -86 61
-86 51 0 -3 18 -15 41 -26 23 -12 39 -23 37 -26 -8 -8 -168 88 -162 97 3 5 -3
6 -12 2 -13 -5 -15 -3 -9 7 5 9 4 11 -3 6 -7 -4 -20 -2 -29 3 -14 8 -15 10 -3
11 13 0 13 1 0 10 -20 13 -33 12 -24 -2 4 -7 3 -8 -5 -4 -6 4 -9 11 -6 15 2 5
-59 45 -136 91 -121 71 -159 101 -159 124 0 16 36 0 141 -60 143 -82 149 -86
149 -80 0 2 -47 32 -105 66 -58 34 -105 64 -105 67 0 3 17 -5 38 -17 20 -12
72 -42 115 -67 45 -26 74 -49 70 -55 -3 -7 -1 -8 5 -4 16 10 94 -32 86 -46 -4
-7 -3 -8 4 -4 6 4 25 0 42 -9 33 -17 40 -27 13 -19 -17 5 -17 5 0 -6 9 -6 22
-8 29 -4 6 4 8 3 5 -3 -10 -15 120 -91 168 -98 115 -19 248 81 244 181 -2 26
-2 27 -6 4 -9 -55 -25 -88 -55 -116 l-32 -29 31 37 c20 24 34 53 38 81 11 71
4 89 -45 122 -76 51 -98 68 -55 44 63 -35 106 -69 115 -93 6 -13 9 -16 9 -5 1
23 -55 71 -154 129 -49 30 -100 60 -112 68 -13 8 -23 12 -23 9 0 -3 27 -22 60
-42 33 -20 60 -39 60 -42 0 -2 -15 4 -32 15 -18 11 -60 36 -93 56 -33 20 -60
42 -60 48 0 7 -9 13 -20 14 -28 0 -56 15 -49 25 3 5 -1 6 -8 4 -8 -3 -22 2
-33 11 -11 8 -14 13 -7 9 26 -13 10 5 -23 25 -19 12 -39 19 -45 15 -6 -4 -9
-1 -8 6 2 6 -3 14 -11 17 -9 3 -11 0 -6 -8 5 -9 4 -11 -4 -6 -6 4 -9 11 -6 16
3 4 -11 17 -31 29 -41 24 -48 26 -38 9 4 -8 3 -10 -2 -5 -5 5 -9 14 -9 19 0 6
-6 13 -14 16 -9 3 -11 0 -6 -8 5 -9 4 -11 -4 -6 -6 4 -9 11 -6 16 3 5 1 11 -5
15 -19 12 -10 25 16 25 14 0 65 -23 111 -51 47 -29 93 -53 102 -54 29 -3 51
-17 44 -28 -4 -6 -1 -7 7 -2 8 5 18 1 27 -10 7 -11 13 -16 13 -12 0 4 18 -2
40 -13 22 -11 40 -23 40 -26 0 -2 -10 1 -22 7 -53 27 -1 -7 163 -109 96 -59
187 -113 202 -120 37 -16 110 -15 150 1 45 19 104 88 117 137 16 59 -2 103
-68 172 -51 54 -92 81 -61 41 11 -15 10 -14 -9 1 -24 21 -29 31 -9 20 6 -4 3
2 -7 14 -23 26 -44 30 -25 5 11 -15 10 -14 -9 1 -23 20 -30 32 -10 20 6 -4 8
-3 5 3 -8 13 -207 166 -207 159 0 -2 38 -34 85 -70 46 -37 87 -72 91 -78 4 -7
-33 19 -82 57 -88 68 -143 115 -114 99 13 -7 13 -5 1 9 -15 18 -26 23 -16 7
11 -18 -10 -10 -40 17 l-30 26 30 -17 30 -17 -30 25 c-30 26 -51 34 -40 16 10
-16 -1 -11 -16 7 -12 15 -12 16 1 8 13 -8 13 -7 1 8 -14 18 -36 24 -26 7 10
-16 -1 -11 -16 7 -12 15 -12 16 1 8 13 -8 13 -7 1 8 -14 18 -36 24 -26 7 10
-16 -1 -11 -16 7 -12 15 -12 16 1 8 13 -8 13 -7 1 8 -14 18 -36 24 -26 7 10
-16 -1 -11 -16 7 -12 14 -12 16 0 8 9 -5 12 -4 8 2 -6 9 -281 198 -317 218
-39 21 16 -19 143 -105 76 -51 140 -97 142 -101 3 -4 -77 47 -178 114 -101 67
-182 125 -180 129 2 4 -2 10 -8 14 -8 4 -9 3 -5 -4 10 -16 -5 -15 -26 2 -10 7
-15 16 -11 20 4 4 1 4 -8 1 -8 -3 -23 2 -34 11 -11 8 -14 13 -7 9 6 -3 12 -4
12 -1 0 10 -131 77 -140 71 -6 -4 -9 -1 -8 5 2 7 -55 43 -127 82 -119 63 -134
68 -177 64 -47 -5 -141 -46 -154 -67 -5 -8 -3 -9 7 -4 12 8 12 6 0 -8 -15 -18
-26 -23 -16 -7 3 6 2 10 -4 10 -14 0 -94 -95 -97 -116 -3 -20 -52 -71 -74 -76
-7 -2 -41 -20 -73 -40 -79 -50 -150 -75 -244 -87 -82 -10 -152 -3 -178 19 -29
24 -38 80 -22 145 8 33 18 69 21 80 5 12 2 10 -7 -5 -21 -37 -38 -128 -31
-166 14 -74 95 -105 223 -85 91 14 163 42 242 92 35 23 57 34 49 26 -31 -32
-137 -89 -205 -109 -92 -28 -216 -30 -263 -5 -50 27 -67 76 -55 153 13 77 48
158 64 148 8 -4 9 -3 5 4 -10 16 12 54 26 46 7 -4 8 -3 4 4 -9 15 11 53 26 49
6 -1 13 4 16 12 3 9 0 11 -9 6 -8 -5 -11 -4 -6 1 5 5 14 9 19 9 6 0 13 6 16
14 3 9 0 11 -9 6 -8 -5 -11 -4 -6 1 5 5 14 9 20 9 5 0 12 6 15 14 3 9 0 11 -9
6 -8 -5 -11 -4 -6 1 5 5 14 9 20 9 5 0 12 6 15 14 3 9 0 11 -9 6 -8 -5 -11 -4
-6 1 5 5 14 9 20 9 5 0 12 6 15 14 3 9 0 11 -9 6 -8 -5 -11 -4 -6 1 5 5 14 9
20 9 5 0 12 6 15 14 3 8 0 11 -7 7 -17 -11 -13 0 6 15 14 12 16 12 9 -1 -4 -8
4 -1 18 15 29 33 36 58 9 28 -10 -10 -15 -14 -10 -9 12 16 8 26 -10 27 -15 0
-15 2 2 9 11 5 15 9 8 9 -6 1 -63 10 -126 21 -129 22 -227 55 -293 100 -25 16
-50 30 -57 29 -7 0 -5 -3 3 -6z"/>
<path d="M1060 2253 c-34 -13 -72 -48 -117 -105 -26 -34 -42 -58 -35 -54 17
10 15 1 -6 -34 -10 -16 -22 -27 -26 -23 -4 4 -4 -1 0 -11 4 -11 3 -17 -2 -14
-11 7 -12 -55 -1 -63 4 -3 9 -19 10 -36 1 -17 4 -29 6 -27 6 6 31 -17 31 -28
0 -5 -6 -6 -12 -2 -7 4 -2 -5 11 -19 29 -32 98 -67 130 -67 37 0 88 29 117 68
15 19 22 32 16 28 -18 -11 -14 10 5 25 11 10 14 10 9 2 -11 -19 -1 -16 15 4
10 11 10 14 2 9 -19 -11 -16 9 4 25 14 12 16 12 8 0 -5 -9 -4 -12 3 -7 6 4 9
13 5 22 -3 9 0 14 7 12 15 -4 21 23 24 114 1 42 -1 65 -7 61 -6 -4 -8 0 -4 10
4 10 -9 29 -39 57 -60 55 -106 71 -154 53z"/>
<path d="M1514 2195 c-23 -14 -68 -60 -104 -107 -67 -87 -92 -125 -50 -74 136
164 156 183 210 191 31 5 31 4 -9 -9 -54 -18 -87 -49 -163 -153 -33 -46 -64
-81 -68 -78 -5 3 -12 0 -16 -6 -4 -8 -3 -9 4 -5 7 4 12 3 12 -2 0 -11 -31 -39
-37 -34 -3 2 -8 0 -11 -4 -4 -4 -1 -4 6 0 20 12 14 -7 -14 -39 l-25 -30 17 30
17 30 -26 -30 c-28 -32 -35 -51 -14 -39 7 4 9 3 4 -2 -5 -5 -14 -9 -19 -9 -6
0 -13 -6 -16 -14 -3 -9 0 -11 9 -5 12 7 12 5 0 -9 -16 -20 -26 -23 -15 -4 5 8
2 8 -9 -2 -19 -15 -23 -36 -5 -25 7 4 8 3 4 -5 -4 -6 -11 -9 -16 -6 -13 8 -50
-69 -50 -102 1 -45 34 -105 83 -150 48 -44 96 -60 144 -48 31 7 110 85 161
158 53 76 28 54 -38 -32 -33 -44 -65 -83 -71 -86 -11 -7 114 159 139 185 13
13 14 13 6 0 -7 -13 -6 -13 9 -1 19 15 23 26 6 15 -7 -4 -10 -1 -7 7 3 8 10
14 16 14 6 0 17 7 24 15 11 12 11 12 -4 1 -10 -7 -18 -9 -18 -3 0 11 32 40 36
32 1 -3 6 -1 11 4 5 5 3 6 -4 2 -7 -4 -13 -3 -13 2 0 15 26 33 34 24 5 -4 6 1
4 10 -1 9 1 17 5 17 14 0 49 50 42 60 -3 5 0 13 6 17 8 5 9 3 4 -7 -8 -12 -6
-12 8 0 19 15 23 36 5 25 -7 -4 -8 -3 -4 5 4 6 11 9 16 6 15 -9 40 51 40 97 0
38 -29 108 -45 108 -4 0 1 -10 9 -22 9 -12 16 -27 16 -33 -1 -5 -8 4 -17 20
-10 17 -16 34 -15 39 3 11 -18 36 -30 36 -5 0 -6 -4 -3 -10 10 -16 -1 -11 -16
7 -12 14 -12 16 0 8 10 -6 12 -4 6 4 -10 17 -68 41 -97 41 -13 0 -41 -11 -64
-25z"/>
<path d="M1810 1888 c-30 -11 -64 -42 -93 -83 -12 -17 -2 -10 24 17 48 50 81
64 136 55 40 -7 108 -50 118 -75 3 -10 -9 -3 -27 15 -55 53 -121 67 -176 39
-15 -8 -42 -35 -60 -60 -18 -25 -35 -46 -38 -46 -3 0 -2 5 2 12 4 7 3 8 -4 4
-6 -4 -9 -13 -6 -20 3 -7 -3 -19 -12 -27 -15 -12 -17 -12 -9 0 5 10 4 12 -4 7
-6 -4 -9 -11 -6 -16 3 -5 -19 -42 -49 -83 -131 -177 -141 -214 -85 -302 17
-27 24 -43 14 -35 -27 23 -55 87 -55 128 0 42 23 83 117 210 30 41 50 71 44
68 -24 -15 -164 -220 -171 -249 -10 -49 9 -103 52 -150 22 -23 37 -36 33 -29
-3 6 -3 12 2 12 12 -1 43 -26 38 -31 -5 -5 100 -3 132 3 12 2 32 13 44 24 32
29 232 305 234 323 1 9 7 29 13 44 16 37 15 60 -3 104 -8 20 -13 38 -10 41 9
10 -17 43 -53 67 -46 30 -110 45 -142 33z"/>
<path d="M2085 1564 c-34 -17 -95 -73 -95 -87 0 -5 8 -3 18 4 14 11 13 10 -2
-9 -21 -24 -32 -29 -20 -9 5 8 2 8 -9 -2 -20 -16 -23 -36 -4 -25 8 5 8 2 -2
-9 -16 -20 -25 -22 -16 -4 4 6 -7 -4 -24 -23 -17 -19 -31 -39 -31 -45 0 -5 12
4 26 20 l26 30 -22 -32 c-11 -18 -26 -32 -32 -30 -6 1 -13 -4 -16 -12 -3 -9 0
-11 8 -6 9 5 11 4 6 -4 -4 -6 -11 -9 -16 -6 -15 9 -50 -61 -50 -99 0 -103 134
-223 224 -200 28 7 106 70 106 86 0 6 -7 5 -17 -3 -16 -13 -17 -12 -4 4 8 9
16 15 19 12 7 -7 32 15 32 27 0 6 -8 4 -17 -3 -16 -11 -16 -11 -5 1 7 8 18 15
24 15 6 0 13 6 16 14 3 9 0 11 -9 5 -12 -7 -12 -5 0 9 15 19 26 23 15 5 -4 -7
-3 -8 4 -4 26 16 104 138 109 170 8 51 -35 136 -89 175 -23 17 -47 31 -52 31
-6 0 3 -8 19 -18 46 -29 93 -87 105 -133 14 -53 -4 -106 -56 -164 l-35 -40 35
48 c19 27 40 64 46 82 26 79 -43 186 -135 210 -28 7 -49 18 -47 24 3 14 3 14
-33 -5z"/>
</g>
</svg>
