<svg class="svg-icon" style="width: 1em; height: 1em;vertical-align: middle;fill: currentColor;overflow: hidden;" viewBox="0 0 1024 1024" version="1.1" xmlns="http://www.w3.org/2000/svg"><path d="M512 512.492782m-423.792108 0a423.792108 423.792108 0 1 0 847.584216 0 423.792108 423.792108 0 1 0-847.584216 0Z" fill="#21754c" /><path d="M626.325313 582.467757s-20.696824-5.913378-26.610202-7.884504c-10.841193-6.898941-17.740135-20.696824-17.740135-34.494706 0-14.783446 12.81232-27.595765 20.696824-37.451396 20.696824-24.639076 31.538017-58.148219 31.538017-95.599615 0-77.85948-55.19153-139.949952-123.19538-139.949952s-123.19538 64.061598-123.19538 141.921078c0 37.451396 12.81232 70.960539 31.538017 95.599615 12.81232 6.898941 20.696824 22.66795 20.696824 37.451396 0 13.797883-6.898941 26.610202-17.740135 34.494706v0.985563c-0.985563 0-2.956689 0.985563-2.956689 0.985563-6.898941 3.942252-13.797883 6.898941-22.66795 6.898942-53.220404 17.740135-97.570741 45.3359-123.19538 80.816169h0.985563c-6.898941 9.85563-9.85563 20.696824-9.85563 31.538017 0 33.509143 27.595765 61.104909 62.090471 61.104909h366.629452c36.465833 0 64.061598-26.610202 64.061597-61.104909 0-13.797883-5.913378-26.610202-12.812319-37.451395-25.624639-34.494706-67.018287-61.104909-118.267565-77.859481z" fill="#FFFFFF" /></svg>