<?xml version="1.0" encoding="utf-8"?>
<!-- Svg Vector Icons : http://www.onlinewebfonts.com/icon -->
<!DOCTYPE svg PUBLIC "-//W3C//DTD SVG 1.1//EN" "http://www.w3.org/Graphics/SVG/1.1/DTD/svg11.dtd">
<svg version="1.1" xmlns="http://www.w3.org/2000/svg" xmlns:xlink="http://www.w3.org/1999/xlink" x="0px" y="0px" viewBox="0 0 256 256" enable-background="new 0 0 256 256" xml:space="preserve" width="40" height="40">
<metadata> Svg Vector Icons : http://www.onlinewebfonts.com/icon </metadata>
<g><g><path fill="#be0000" d="M243.9,57.1l-29.2,29.2h-21.8h-12l-5.3,5.3l-20.3,20.3l-12.6,12.6l-10.7,10.7c-1.6,1.6-3.7,2.4-5.8,2.4c-2.2,0-4.3-0.9-6-2.6c-3.1-3.3-2.7-8.5,0.4-11.6l21.3-21.3l1.6-1.6l0,0l20.4-20.4l0,0l5.4-5.4V63V40.9l10.1-10.1l0,0l19.1-19.1c0.2-0.2,0.5-0.5,0.8-0.7c0.1,0,0.1-0.1,0.2-0.1c0.3-0.2,0.6-0.4,0.8-0.5c0,0,0,0,0.1,0c0.3-0.1,0.5-0.2,0.8-0.4c0.1,0,0.1,0,0.2-0.1c0.3-0.1,0.6-0.2,0.9-0.2c0,0,0.1,0,0.1,0c0.3,0,0.5-0.1,0.8-0.1c0.1,0,0.1,0,0.2,0c0.3,0,0.6,0,0.9,0c0,0,0.1,0,0.1,0c0.3,0,0.5,0.1,0.8,0.1c0.1,0,0.1,0,0.2,0c0.3,0.1,0.6,0.2,0.8,0.3c0,0,0.1,0,0.1,0c0.2,0.1,0.5,0.2,0.7,0.3c0.1,0,0.1,0.1,0.2,0.1c0.3,0.1,0.5,0.3,0.7,0.5c0,0,0,0,0.1,0.1c0.2,0.2,0.4,0.3,0.6,0.5c0,0,0.1,0.1,0.2,0.2c0.2,0.2,0.4,0.5,0.6,0.7c0,0,0,0,0,0.1c0.2,0.2,0.3,0.5,0.5,0.7c0,0.1,0.1,0.1,0.1,0.2c0.1,0.3,0.3,0.6,0.4,0.9c0,0,0,0,0,0c0.1,0.3,0.2,0.6,0.2,0.9c0,0.1,0,0.2,0,0.2c0,0.3,0.1,0.7,0.1,1l0.6,27.4l0.6,0l26.8,0.6c1.4,0,2.7,0.5,3.8,1.2c0.4,0.3,0.8,0.6,1.1,0.9c0.5,0.5,0.9,1,1.3,1.6c0.3,0.6,0.6,1.2,0.7,1.9C246.4,52.5,245.8,55.1,243.9,57.1z M124.7,66.9C89,66.9,60,95.9,60,131.7c0,35.7,29.1,64.8,64.8,64.8c35.7,0,64.8-29.1,64.8-64.8c0-8.8-1.8-17.2-5-24.9l-23.4,23.4c0,0.5,0,1,0,1.5c0,20.1-16.4,36.4-36.4,36.4c-20.1,0-36.4-16.4-36.4-36.4c0-20,16.2-36.3,36.2-36.4l23.9-23.9C141.1,68.5,133.1,66.9,124.7,66.9z M226.8,98.3c-3.2,3.2-7.6,5-12.1,5h-13.1c3.3,8.8,5.1,18.4,5.1,28.3c0,45.2-36.7,81.9-81.9,81.9c-45.2,0-81.9-36.7-81.9-81.9s36.7-81.9,81.9-81.9c9.6,0,18.9,1.7,27.5,4.8V40.9c0-4.6,1.8-8.9,5-12.1l5.4-5.4c-11.9-4.2-24.6-6.4-37.9-6.4C61.5,16.9,10,68.4,10,131.7c0,63.3,51.5,114.8,114.7,114.8c63.3,0,114.7-51.5,114.7-114.7c0-13.8-2.4-26.9-6.9-39.2L226.8,98.3z"/><g></g><g></g><g></g><g></g><g></g><g></g><g></g><g></g><g></g><g></g><g></g><g></g><g></g><g></g><g></g></g></g>
</svg>
